<svg id="logo-light" width="200" height="200" viewBox="0 0 400 400" fill="none" xmlns="http://www.w3.org/2000/svg"><circle cx="200" cy="200" r="195" fill="#FCFCFD" stroke="#3DE6B3" stroke-width="3"/><circle cx="200" cy="200" r="180" fill="none" stroke="#3DE6B3" stroke-width="1" opacity="0.3"/><g opacity="0.4"><circle cx="200" cy="60" r="3" fill="#1565FF"/><circle cx="175" cy="65" r="2.5" fill="#1565FF"/><circle cx="225" cy="65" r="2.5" fill="#1565FF"/><circle cx="152" cy="75" r="2" fill="#1565FF"/><circle cx="248" cy="75" r="2" fill="#1565FF"/></g><g opacity="0.4"><circle cx="200" cy="340" r="3" fill="#1565FF"/><circle cx="175" cy="335" r="2.5" fill="#1565FF"/><circle cx="225" cy="335" r="2.5" fill="#1565FF"/><circle cx="152" cy="325" r="2" fill="#1565FF"/><circle cx="248" cy="325" r="2" fill="#1565FF"/></g><g opacity="0.4"><circle cx="60" cy="200" r="3" fill="#1565FF"/><circle cx="65" cy="175" r="2.5" fill="#1565FF"/><circle cx="65" cy="225" r="2.5" fill="#1565FF"/><circle cx="75" cy="152" r="2" fill="#1565FF"/><circle cx="75" cy="248" r="2" fill="#1565FF"/></g><g opacity="0.4"><circle cx="340" cy="200" r="3" fill="#1565FF"/><circle cx="335" cy="175" r="2.5" fill="#1565FF"/><circle cx="335" cy="225" r="2.5" fill="#1565FF"/><circle cx="325" cy="152" r="2" fill="#1565FF"/><circle cx="325" cy="248" r="2" fill="#1565FF"/></g><g opacity="0.15" stroke="#3DE6B3" stroke-width="2" fill="none"><circle cx="170" cy="130" r="8"/><circle cx="200" cy="130" r="8"/><circle cx="230" cy="130" r="8"/><circle cx="170" cy="160" r="8"/><circle cx="200" cy="160" r="8"/><circle cx="230" cy="160" r="8"/><circle cx="170" cy="190" r="8"/><circle cx="200" cy="190" r="8"/><circle cx="230" cy="190" r="8"/><circle cx="200" cy="220" r="8"/></g><text x="200" y="265" text-anchor="middle" fill="#FCFCFD" style="font-size: 52px; font-weight: 700; letter-spacing: -0.02em;">GiDi</text><text x="200" y="305" text-anchor="middle" fill="#3DE6B3" style="font-size: 52px; font-weight: 700; letter-spacing: 0.08em;">PIN</text><g transform="translate(280, 100)"><circle cx="0" cy="0" r="20" fill="#1565FF"/><path d="M-8 0 L-3 5 L8 -6" stroke="#FCFCFD" stroke-width="3" fill="none" stroke-linecap="round" stroke-linejoin="round"/></g><text x="200" y="362" text-anchor="middle" fill="#3DE6B3" style="font-size: 14px; font-weight: 500; letter-spacing: 0.15em;">IDENTITY VERIFIED</text></svg>